<svg width="16" height="16" viewBox="0 0 16 16" fill="none" xmlns="http://www.w3.org/2000/svg">
<g id="Property=&#234;&#176;&#132;&#236;&#139;&#157;, State=&#236;&#149;&#132;&#235;&#130;&#140;">
<g id="vuesax/linear/cake">
<g id="cake">
<path id="Vector" d="M1.33325 14.6667H14.6666" stroke="#0082FF" stroke-linecap="round" stroke-linejoin="round"/>
<path id="Vector_2" d="M2.07324 14.6667V8.66675C2.07324 7.56008 3.06658 6.66675 4.29324 6.66675H11.6999C12.9266 6.66675 13.9199 7.56008 13.9199 8.66675V14.6667" stroke="#0082FF" stroke-linecap="round" stroke-linejoin="round"/>
<path id="Vector_3" d="M3.70679 6.66659V4.77992C3.70679 3.97992 4.42679 3.33325 5.32012 3.33325H10.6868C11.5735 3.33325 12.2935 3.97992 12.2935 4.77992V6.66659" stroke="#0082FF" stroke-linecap="round" stroke-linejoin="round"/>
<path id="Vector_4" d="M2.35327 9.32007L2.59994 9.32674C3.09327 9.3334 3.4866 9.7334 3.4866 10.2267V10.4467C3.4866 10.9401 3.8866 11.3467 4.3866 11.3467C4.87994 11.3467 5.2866 10.9467 5.2866 10.4467V10.2401C5.2866 9.74674 5.6866 9.34007 6.1866 9.34007C6.67994 9.34007 7.0866 9.74007 7.0866 10.2401V10.4467C7.0866 10.9401 7.4866 11.3467 7.9866 11.3467C8.47994 11.3467 8.8866 10.9467 8.8866 10.4467V10.2401C8.8866 9.74674 9.2866 9.34007 9.7866 9.34007C10.2799 9.34007 10.6866 9.74007 10.6866 10.2401V10.4467C10.6866 10.9401 11.0866 11.3467 11.5866 11.3467C12.0799 11.3467 12.4866 10.9467 12.4866 10.4467V10.2401C12.4866 9.74674 12.8866 9.34007 13.3866 9.34007H13.6866" stroke="#0082FF" stroke-linecap="round" stroke-linejoin="round"/>
<path id="Vector_5" d="M5.33325 3.33333V2" stroke="#0082FF" stroke-linecap="round" stroke-linejoin="round"/>
<path id="Vector_6" d="M10.6667 3.33333V2" stroke="#0082FF" stroke-linecap="round" stroke-linejoin="round"/>
<path id="Vector_7" d="M8 3.33325V1.33325" stroke="#0082FF" stroke-linecap="round" stroke-linejoin="round"/>
</g>
</g>
</g>
</svg>
