<svg width="109" height="64" viewBox="0 0 109 64" fill="none" xmlns="http://www.w3.org/2000/svg">
<path d="M55.02 14.9102C51.71 14.9102 49.02 17.6002 49.02 20.9102V23.8002C49.02 24.4102 48.76 25.3402 48.45 25.8602L47.3 27.7702C46.59 28.9502 47.08 30.2602 48.38 30.7002C52.69 32.1402 57.34 32.1402 61.65 30.7002C62.86 30.3002 63.39 28.8702 62.73 27.7702L61.58 25.8602C61.28 25.3402 61.02 24.4102 61.02 23.8002V20.9102C61.02 17.6102 58.32 14.9102 55.02 14.9102Z" stroke="#A5AEB5" stroke-width="1.5" stroke-miterlimit="10" stroke-linecap="round"/>
<path d="M56.87 15.1999C56.56 15.1099 56.24 15.0399 55.91 14.9999C54.95 14.8799 54.03 14.9499 53.17 15.1999C53.46 14.4599 54.18 13.9399 55.02 13.9399C55.86 13.9399 56.58 14.4599 56.87 15.1999Z" stroke="#A5AEB5" stroke-width="1.5" stroke-miterlimit="10" stroke-linecap="round" stroke-linejoin="round"/>
<path d="M58.02 31.0601C58.02 32.7101 56.67 34.0601 55.02 34.0601C54.2 34.0601 53.44 33.7201 52.9 33.1801C52.36 32.6401 52.02 31.8801 52.02 31.0601" stroke="#A5AEB5" stroke-width="1.5" stroke-miterlimit="10"/>
<path d="M52.3769 40.793H53.8399V45.875H52.3769V40.793ZM53.2459 42.74H55.1819V43.939H53.2459V42.74ZM47.1079 46.282H53.8399V49.076H48.5819V50.286H47.1299V48.02H52.3989V47.404H47.1079V46.282ZM47.1299 49.725H54.1369V50.869H47.1299V49.725ZM48.6039 41.09C50.1659 41.09 51.3209 42.047 51.3209 43.4C51.3209 44.742 50.1659 45.71 48.6039 45.71C47.0529 45.71 45.8869 44.742 45.8869 43.4C45.8869 42.047 47.0529 41.09 48.6039 41.09ZM48.6039 42.267C47.8559 42.267 47.3059 42.685 47.3059 43.4C47.3059 44.115 47.8559 44.544 48.6039 44.544C49.3629 44.544 49.9129 44.115 49.9129 43.4C49.9129 42.685 49.3629 42.267 48.6039 42.267ZM62.936 40.793H64.41V46.832H62.936V40.793ZM56.468 45.314H57.359C59.339 45.314 60.626 45.281 62.1 45.039L62.265 46.194C60.747 46.458 59.394 46.502 57.359 46.502H56.468V45.314ZM56.457 41.376H61.143V44.445H57.909V46.018H56.468V43.356H59.702V42.531H56.457V41.376ZM57.634 47.294H64.41V50.869H57.634V47.294ZM62.969 48.438H59.064V49.714H62.969V48.438Z" fill="#A5AEB5"/>
</svg>
