<svg width="16" height="16" viewBox="0 0 16 16" fill="none" xmlns="http://www.w3.org/2000/svg">
<g id="Property=&#237;&#152;&#132;&#236;&#167;&#136;, State=&#236;&#149;&#132;&#235;&#130;&#140;">
<g id="vuesax/linear/game">
<g id="game">
<path id="Vector" d="M6.38001 8.30664L4.34668 10.34" stroke="#0082FF" stroke-miterlimit="10" stroke-linecap="round" stroke-linejoin="round"/>
<path id="Vector_2" d="M4.3667 8.32666L6.40003 10.36" stroke="#0082FF" stroke-miterlimit="10" stroke-linecap="round" stroke-linejoin="round"/>
<path id="Vector_3" d="M9.02002 9.33325H9.02669" stroke="#0082FF" stroke-width="1.5" stroke-miterlimit="10" stroke-linecap="round" stroke-linejoin="round"/>
<path id="Vector_4" d="M11.6467 9.33325H11.6534" stroke="#0082FF" stroke-width="1.5" stroke-miterlimit="10" stroke-linecap="round" stroke-linejoin="round"/>
<path id="Vector_5" d="M10.3333 10.6532V10.6399" stroke="#0082FF" stroke-width="1.5" stroke-miterlimit="10" stroke-linecap="round" stroke-linejoin="round"/>
<path id="Vector_6" d="M10.3333 8.02676V8.01343" stroke="#0082FF" stroke-width="1.5" stroke-miterlimit="10" stroke-linecap="round" stroke-linejoin="round"/>
<path id="Vector_7" d="M5.99992 14.6667H9.99992C13.3333 14.6667 14.6666 13.3333 14.6666 10V8.66667C14.6666 5.33333 13.3333 4 9.99992 4H5.99992C2.66659 4 1.33325 5.33333 1.33325 8.66667V10C1.33325 13.3333 2.66659 14.6667 5.99992 14.6667Z" stroke="#0082FF" stroke-linecap="round" stroke-linejoin="round"/>
<path id="Vector_8" d="M8.6734 1.33325L8.66674 2.00659C8.66007 2.37325 8.36674 2.66659 8.00007 2.66659H7.98007C7.6134 2.66659 7.32007 2.96659 7.32007 3.33325C7.32007 3.69992 7.62007 3.99992 7.98674 3.99992H8.6534" stroke="#0082FF" stroke-linecap="round" stroke-linejoin="round"/>
</g>
</g>
</g>
</svg>
