<svg width="24" height="24" viewBox="0 0 24 24" fill="none" xmlns="http://www.w3.org/2000/svg">
<path d="M7.24194 5.84569L7.24144 5.84586C5.78201 6.33404 4.64834 6.91096 3.86967 7.55445C3.09273 8.19652 2.61755 8.95163 2.61755 9.78378C2.61755 10.6161 3.09289 11.3707 3.87007 12.0116C4.64886 12.6538 5.78259 13.2288 7.24194 13.7144C7.24202 13.7144 7.24211 13.7144 7.24219 13.7145L9.52477 14.4753L10.2856 16.7579C10.7713 18.2175 11.347 19.3514 11.9901 20.1303C12.6319 20.9075 13.3874 21.3825 14.2201 21.3825C15.0527 21.3825 15.8082 20.9075 16.45 20.1303C17.0931 19.3514 17.6688 18.2175 18.1545 16.7579L20.9844 8.26815L20.9848 8.26702C21.6401 6.28535 21.487 4.57517 20.4551 3.54174C19.4226 2.50768 17.714 2.35499 15.7319 3.01569L7.24194 5.84569Z" fill="#D6DCE1" stroke="#F9FAFB" stroke-linecap="round" stroke-linejoin="round"/>
<path d="M10.11 13.6501L13.69 10.0601L10.11 13.6501Z" fill="#D6DCE1"/>
<path d="M10.11 13.6501L13.69 10.0601" stroke="#F9FAFB" stroke-linecap="round" stroke-linejoin="round"/>
</svg>
