<svg width="252" height="251" viewBox="0 0 252 251" fill="none" xmlns="http://www.w3.org/2000/svg">
<path d="M202.75 246.25C191.75 249.5 178.75 251 163.5 251H88.5C73.25 251 60.25 249.5 49.25 246.25C52 213.75 85.375 188.125 126 188.125C166.625 188.125 200 213.75 202.75 246.25Z" fill="white"/>
<path d="M163.5 1H88.5C26 1 1 26 1 88.5V163.5C1 210.75 15.25 236.625 49.25 246.25C52 213.75 85.375 188.125 126 188.125C166.625 188.125 200 213.75 202.75 246.25C236.75 236.625 251 210.75 251 163.5V88.5C251 26 226 1 163.5 1ZM126 153.125C101.25 153.125 81.25 133 81.25 108.25C81.25 83.5002 101.25 63.5 126 63.5C150.75 63.5 170.75 83.5002 170.75 108.25C170.75 133 150.75 153.125 126 153.125Z" fill="#EEF0F1" stroke="#EEF0F1" stroke-width="1.5" stroke-linecap="round" stroke-linejoin="round"/>
<path d="M170.75 108.25C170.75 133 150.75 153.125 126 153.125C101.25 153.125 81.25 133 81.25 108.25C81.25 83.5002 101.25 63.5 126 63.5C150.75 63.5 170.75 83.5002 170.75 108.25Z" fill="white"/>
</svg>
