<svg width="109" height="64" viewBox="0 0 109 64" fill="none" xmlns="http://www.w3.org/2000/svg">
<path d="M36.5118 41.497C38.0628 41.497 39.1848 42.905 39.1848 45.127C39.1848 47.371 38.0628 48.779 36.5118 48.779C34.9607 48.779 33.8388 47.371 33.8388 45.127C33.8388 42.905 34.9607 41.497 36.5118 41.497ZM36.5118 42.828C35.7528 42.828 35.2468 43.631 35.2468 45.127C35.2468 46.645 35.7528 47.459 36.5118 47.459C37.2708 47.459 37.7878 46.645 37.7878 45.127C37.7878 43.631 37.2708 42.828 36.5118 42.828ZM40.2958 40.793H41.7698V50.979H40.2958V40.793ZM41.4398 44.632H43.2438V45.842H41.4398V44.632ZM45.6739 41.387H47.0159C47.0159 43.543 46.5429 44.973 44.8269 46.249L43.8919 45.347C45.2339 44.379 45.6739 43.444 45.6739 41.618V41.387ZM44.3099 41.387H46.3669V42.542H44.3099V41.387ZM48.5889 41.387H49.9309C49.9309 43.609 49.4909 45.171 47.8629 46.546L46.8399 45.732C48.1819 44.61 48.5889 43.532 48.5889 41.596V41.387ZM47.3789 41.387H49.1939V42.542H47.3789V41.387ZM50.8879 40.804H52.3619V46.579H50.8879V40.804ZM45.5089 47.019H52.3619V50.869H45.5089V47.019ZM50.9209 48.163H46.9499V49.714H50.9209V48.163ZM64.184 40.793H65.581V50.979H64.184V40.793ZM62.853 44.72H64.547V45.886H62.853V44.72ZM61.907 40.969H63.271V50.495H61.907V40.969ZM57.254 41.915H58.717V47.8H57.254V41.915ZM57.254 47.25H57.958C58.937 47.25 60.081 47.195 61.346 46.953L61.489 48.207C60.158 48.449 58.992 48.504 57.958 48.504H57.254V47.25ZM71.4871 42.157H74.5011V43.334H71.4871V42.157ZM71.4871 44.368H74.5011V45.545H71.4871V44.368ZM68.5611 47.283H75.5021V50.979H74.0391V48.438H68.5611V47.283ZM74.0391 40.793H75.5021V46.821H74.0391V40.793ZM69.7931 41.321C71.3111 41.321 72.4771 42.377 72.4771 43.84C72.4771 45.314 71.3111 46.37 69.7931 46.37C68.2641 46.37 67.0981 45.314 67.0981 43.84C67.0981 42.377 68.2641 41.321 69.7931 41.321ZM69.7931 42.564C69.0451 42.564 68.4951 43.037 68.4951 43.84C68.4951 44.654 69.0451 45.127 69.7931 45.127C70.5301 45.127 71.0911 44.654 71.0911 43.84C71.0911 43.037 70.5301 42.564 69.7931 42.564Z" fill="#22282E"/>
<mask id="path-2-inside-1_837_11153" fill="white">
<path d="M44 22.5V20.5C44 17.78 45.64 15.88 48.19 15.56C48.45 15.52 48.72 15.5 49 15.5H58C58.26 15.5 58.51 15.51 58.75 15.55C61.33 15.85 63 17.76 63 20.5V21.95H60.92C60.36 21.95 59.85 22.17 59.48 22.55C59.06 22.96 58.82 23.55 58.88 24.18C58.97 25.26 59.96 26.05 61.04 26.05H63V27.5C63 30.5 61 32.5 58 32.5H55.5"/>
</mask>
<path d="M44 22.5V20.5C44 17.78 45.64 15.88 48.19 15.56C48.45 15.52 48.72 15.5 49 15.5H58C58.26 15.5 58.51 15.51 58.75 15.55C61.33 15.85 63 17.76 63 20.5V21.95H60.92C60.36 21.95 59.85 22.17 59.48 22.55C59.06 22.96 58.82 23.55 58.88 24.18C58.97 25.26 59.96 26.05 61.04 26.05H63V27.5C63 30.5 61 32.5 58 32.5H55.5" fill="#22282E"/>
<path d="M42.5 22.5C42.5 23.3284 43.1716 24 44 24C44.8284 24 45.5 23.3284 45.5 22.5H42.5ZM48.19 15.56L48.3768 17.0483C48.3906 17.0466 48.4043 17.0447 48.4181 17.0426L48.19 15.56ZM58.75 15.55L58.5034 17.0296C58.5278 17.0336 58.5522 17.0371 58.5767 17.0399L58.75 15.55ZM63 21.95V23.45C63.8284 23.45 64.5 22.7784 64.5 21.95H63ZM59.48 22.55L60.5278 23.6233C60.5369 23.6145 60.5458 23.6055 60.5547 23.5964L59.48 22.55ZM58.88 24.18L60.3748 24.0554C60.3743 24.0495 60.3738 24.0437 60.3732 24.0378L58.88 24.18ZM63 26.05H64.5C64.5 25.2216 63.8284 24.55 63 24.55V26.05ZM55.5 31C54.6716 31 54 31.6716 54 32.5C54 33.3284 54.6716 34 55.5 34V31ZM45.5 22.5V20.5H42.5V22.5H45.5ZM45.5 20.5C45.5 19.4457 45.8139 18.6502 46.2803 18.103C46.7437 17.5594 47.4371 17.1662 48.3768 17.0483L48.0032 14.0717C46.3929 14.2738 44.9913 14.9906 43.9972 16.157C43.0061 17.3198 42.5 18.8343 42.5 20.5H45.5ZM48.4181 17.0426C48.598 17.0149 48.7915 17 49 17V14C48.6485 14 48.3021 14.0251 47.9619 14.0774L48.4181 17.0426ZM49 17H58V14H49V17ZM58 17C58.2291 17 58.3836 17.0096 58.5034 17.0296L58.9966 14.0704C58.6364 14.0104 58.2909 14 58 14V17ZM58.5767 17.0399C59.5303 17.1508 60.2357 17.5439 60.7069 18.09C61.1809 18.6392 61.5 19.4394 61.5 20.5H64.5C64.5 18.8206 63.9841 17.2958 62.9781 16.13C61.9693 14.961 60.5497 14.2492 58.9233 14.06L58.5767 17.0399ZM61.5 20.5V21.95H64.5V20.5H61.5ZM63 20.45H60.92V23.45H63V20.45ZM60.92 20.45C59.9581 20.45 59.0596 20.8315 58.4053 21.5036L60.5547 23.5964C60.6403 23.5085 60.7619 23.45 60.92 23.45V20.45ZM58.4322 21.4766C57.7043 22.1872 57.2816 23.2177 57.3868 24.3222L60.3732 24.0378C60.3584 23.8823 60.4157 23.7328 60.5278 23.6233L58.4322 21.4766ZM57.3852 24.3046C57.5494 26.2746 59.2982 27.55 61.04 27.55V24.55C60.8613 24.55 60.685 24.4825 60.5565 24.374C60.4333 24.2699 60.3832 24.1565 60.3748 24.0554L57.3852 24.3046ZM61.04 27.55H63V24.55H61.04V27.55ZM61.5 26.05V27.5H64.5V26.05H61.5ZM61.5 27.5C61.5 28.6591 61.1202 29.5085 60.5643 30.0643C60.0085 30.6202 59.1591 31 58 31V34C59.8409 34 61.4915 33.3798 62.6857 32.1857C63.8798 30.9915 64.5 29.3409 64.5 27.5H61.5ZM58 31H55.5V34H58V31Z" fill="#22282E" mask="url(#path-2-inside-1_837_11153)"/>
<path d="M64 22.9702V25.0302C64 25.5802 63.56 26.0302 63 26.0502H61.04C59.96 26.0502 58.97 25.2602 58.88 24.1802C58.82 23.5502 59.06 22.9602 59.48 22.5502C59.85 22.1702 60.36 21.9502 60.92 21.9502H63C63.56 21.9702 64 22.4202 64 22.9702Z" fill="#22282E" stroke="white" stroke-width="1.5" stroke-linecap="round" stroke-linejoin="round"/>
<path d="M53.5016 28.8604C53.5016 28.4461 53.1658 28.1104 52.7516 28.1104C52.3374 28.1104 52.0016 28.4461 52.0016 28.8604C52.0016 30.0136 50.896 31.0504 49.1816 31.0504C47.4539 31.0504 46.3516 30.021 46.3516 28.8604C46.3516 28.4461 46.0158 28.1104 45.6016 28.1104C45.1873 28.1104 44.8516 28.4461 44.8516 28.8604V30.8904C44.8516 33.1215 46.9014 34.7504 49.1816 34.7504C51.4647 34.7504 53.5016 33.119 53.5016 30.8904V28.8604Z" fill="#22282E" stroke="white" stroke-width="1.5" stroke-linecap="round" stroke-linejoin="round"/>
<path d="M52.2055 23.3455L52.2055 23.3455L52.2011 23.3418C51.4129 22.6627 50.3485 22.25 49.1816 22.25C46.89 22.25 44.8516 23.8801 44.8516 26.11V28.86C44.8516 31.1291 46.9589 32.55 49.1816 32.55C51.4054 32.55 53.5016 31.1382 53.5016 28.86V26.11C53.5016 25.0079 52.9878 24.03 52.2055 23.3455Z" fill="#22282E" stroke="white" stroke-width="1.5" stroke-linecap="round" stroke-linejoin="round"/>
<path d="M46.63 23.9197L46.1361 23.3553C45.3561 24.0378 44.84 25.0049 44.84 26.1097C44.84 26.7539 45.0213 27.3463 45.3269 27.8556L45.3268 27.8556L45.331 27.8624C46.0845 29.0885 47.5656 29.7997 49.17 29.7997C50.7704 29.7997 52.2556 29.1011 53.0108 27.8595L53.0108 27.8595L53.0131 27.8556C53.3187 27.3463 53.5 26.754 53.5 26.1097C53.5 25.0089 52.9868 24.0263 52.1749 23.3475C51.3871 22.6708 50.3246 22.2598 49.16 22.2598C47.9984 22.2598 46.9299 22.6592 46.1355 23.3558L46.63 23.9197ZM46.63 23.9197C47.28 23.3497 48.17 23.0098 49.16 23.0098C50.15 23.0098 51.04 23.3597 51.69 23.9197C52.35 24.4697 52.75 25.2497 52.75 26.1097C52.75 26.6097 52.61 27.0697 52.37 27.4697C51.78 28.4397 50.57 29.0497 49.17 29.0497C47.77 29.0497 46.56 28.4297 45.97 27.4697C45.73 27.0697 45.59 26.6097 45.59 26.1097C45.59 25.2497 45.99 24.4797 46.63 23.9197Z" fill="#22282E" stroke="white" stroke-width="1.5" stroke-linecap="round" stroke-linejoin="round"/>
</svg>
