<svg width="16" height="16" viewBox="0 0 16 16" fill="none" xmlns="http://www.w3.org/2000/svg">
<g id="Property=&#236;&#132;&#160;&#235;&#172;&#188;, State=&#236;&#149;&#132;&#235;&#130;&#140;">
<g id="vuesax/linear/gift">
<g id="gift">
<path id="Vector" d="M13.3134 6.66675H2.64673V12.0001C2.64673 14.0001 3.3134 14.6667 5.3134 14.6667H10.6467C12.6467 14.6667 13.3134 14.0001 13.3134 12.0001V6.66675Z" stroke="#0082FF" stroke-miterlimit="10" stroke-linecap="round" stroke-linejoin="round"/>
<path id="Vector_2" d="M14.3334 4.66659V5.33325C14.3334 6.06659 13.9801 6.66659 13.0001 6.66659H3.00008C1.98008 6.66659 1.66675 6.06659 1.66675 5.33325V4.66659C1.66675 3.93325 1.98008 3.33325 3.00008 3.33325H13.0001C13.9801 3.33325 14.3334 3.93325 14.3334 4.66659Z" stroke="#0082FF" stroke-miterlimit="10" stroke-linecap="round" stroke-linejoin="round"/>
<path id="Vector_3" d="M7.75994 3.33329H4.07994C3.85327 3.08663 3.85994 2.70663 4.09994 2.46663L5.0466 1.51996C5.29327 1.27329 5.69994 1.27329 5.9466 1.51996L7.75994 3.33329Z" stroke="#0082FF" stroke-miterlimit="10" stroke-linecap="round" stroke-linejoin="round"/>
<path id="Vector_4" d="M11.9134 3.33329H8.2334L10.0467 1.51996C10.2934 1.27329 10.7001 1.27329 10.9467 1.51996L11.8934 2.46663C12.1334 2.70663 12.1401 3.08663 11.9134 3.33329Z" stroke="#0082FF" stroke-miterlimit="10" stroke-linecap="round" stroke-linejoin="round"/>
<path id="Vector_5" d="M5.95996 6.66675V10.0934C5.95996 10.6267 6.54663 10.9401 6.99329 10.6534L7.61996 10.2401C7.84663 10.0934 8.13329 10.0934 8.35329 10.2401L8.94663 10.6401C9.38663 10.9334 9.97996 10.6201 9.97996 10.0867V6.66675H5.95996Z" stroke="#0082FF" stroke-miterlimit="10" stroke-linecap="round" stroke-linejoin="round"/>
</g>
</g>
</g>
</svg>
