<svg width="109" height="64" viewBox="0 0 109 64" fill="none" xmlns="http://www.w3.org/2000/svg">
<path d="M52.3769 40.793H53.8399V45.875H52.3769V40.793ZM53.2459 42.74H55.1819V43.939H53.2459V42.74ZM47.1079 46.282H53.8399V49.076H48.5819V50.286H47.1299V48.02H52.3989V47.404H47.1079V46.282ZM47.1299 49.725H54.1369V50.869H47.1299V49.725ZM48.6039 41.09C50.1659 41.09 51.3209 42.047 51.3209 43.4C51.3209 44.742 50.1659 45.71 48.6039 45.71C47.0529 45.71 45.8869 44.742 45.8869 43.4C45.8869 42.047 47.0529 41.09 48.6039 41.09ZM48.6039 42.267C47.8559 42.267 47.3059 42.685 47.3059 43.4C47.3059 44.115 47.8559 44.544 48.6039 44.544C49.3629 44.544 49.9129 44.115 49.9129 43.4C49.9129 42.685 49.3629 42.267 48.6039 42.267ZM62.936 40.793H64.41V46.832H62.936V40.793ZM56.468 45.314H57.359C59.339 45.314 60.626 45.281 62.1 45.039L62.265 46.194C60.747 46.458 59.394 46.502 57.359 46.502H56.468V45.314ZM56.457 41.376H61.143V44.445H57.909V46.018H56.468V43.356H59.702V42.531H56.457V41.376ZM57.634 47.294H64.41V50.869H57.634V47.294ZM62.969 48.438H59.064V49.714H62.969V48.438Z" fill="#22282E"/>
<path d="M62.34 26.49L61.34 24.83C61.13 24.46 60.94 23.76 60.94 23.35V20.82C60.94 18.47 59.56 16.44 57.57 15.49C57.05 14.57 56.09 14 54.99 14C53.9 14 52.92 14.59 52.4 15.52C50.45 16.49 49.1 18.5 49.1 20.82V23.35C49.1 23.76 48.91 24.46 48.7 24.82L47.69 26.49C47.29 27.16 47.2 27.9 47.45 28.58C47.69 29.25 48.26 29.77 49 30.02C50.94 30.68 52.98 31 55.02 31C57.06 31 59.1 30.68 61.04 30.03C61.74 29.8 62.28 29.27 62.54 28.58C62.8 27.89 62.73 27.13 62.34 26.49Z" fill="#22282E"/>
<path d="M57.83 32.01C57.41 33.17 56.3 34 55 34C54.21 34 53.43 33.68 52.88 33.11C52.56 32.81 52.32 32.41 52.18 32C52.31 32.02 52.44 32.03 52.58 32.05C52.81 32.08 53.05 32.11 53.29 32.13C53.86 32.18 54.44 32.21 55.02 32.21C55.59 32.21 56.16 32.18 56.72 32.13C56.93 32.11 57.14 32.1 57.34 32.07C57.5 32.05 57.66 32.03 57.83 32.01Z" fill="#22282E"/>
</svg>
