<svg width="108" height="64" viewBox="0 0 108 64" fill="none" xmlns="http://www.w3.org/2000/svg">
<path d="M39.4637 41.772H40.8827C40.8827 44.907 40.0687 47.536 36.4167 49.45L35.6137 48.339C38.6167 46.755 39.4637 44.83 39.4637 41.948V41.772ZM36.2187 41.772H40.3547V42.927H36.2187V41.772ZM39.6067 44.269V45.38L35.8667 45.721L35.6797 44.489L39.6067 44.269ZM42.7637 40.793H44.2267V50.979H42.7637V40.793ZM40.8717 44.698H43.5337V45.886H40.8717V44.698ZM47.9329 46.766H49.3959V51.012H47.9329V46.766ZM51.5189 46.766H52.9819V51.012H51.5189V46.766ZM45.8209 46.469H55.0499V47.635H45.8209V46.469ZM46.8879 41.277H53.9499V45.38H46.8879V41.277ZM52.5089 42.421H48.3289V44.225H52.5089V42.421ZM62.991 40.793H64.454V50.979H62.991V40.793ZM56.479 41.761H57.931V48.086H56.479V41.761ZM56.479 47.228H57.381C58.866 47.228 60.516 47.118 62.199 46.788L62.364 47.998C60.615 48.361 58.932 48.471 57.381 48.471H56.479V47.228ZM66.6091 47.492H67.4891C69.2711 47.492 70.6351 47.459 72.2081 47.228L72.3401 48.383C70.7451 48.636 69.3041 48.68 67.4891 48.68H66.6091V47.492ZM66.6091 41.64H71.7681V42.828H68.0611V47.877H66.6091V41.64ZM67.7311 44.467H71.3391V45.611H67.7311V44.467ZM73.0771 40.793H74.5511V50.979H73.0771V40.793Z" fill="#22282E"/>
<path d="M62.83 20.01L56.28 14.77C55 13.75 53 13.74 51.73 14.76L45.18 20.01C44.24 20.76 43.67 22.26 43.87 23.44L45.13 30.98C45.42 32.67 46.99 34 48.7 34H59.3C60.99 34 62.59 32.64 62.88 30.97L64.14 23.43C64.32 22.26 63.75 20.76 62.83 20.01ZM54.75 30C54.75 30.41 54.41 30.75 54 30.75C53.59 30.75 53.25 30.41 53.25 30V27C53.25 26.59 53.59 26.25 54 26.25C54.41 26.25 54.75 26.59 54.75 27V30Z" fill="#22282E"/>
</svg>
