<svg width="34" height="34" viewBox="0 0 34 34" fill="none" xmlns="http://www.w3.org/2000/svg">
<g id="vuesax/linear/sms-star">
<g id="sms-star">
<path id="Vector" d="M31 16.3001V21.9001C31 26.8001 28.2 28.9001 24 28.9001H10C5.8 28.9001 3 26.8001 3 21.9001V12.1001C3 7.2001 5.8 5.1001 10 5.1001H17" stroke="#292D32" stroke-width="2" stroke-miterlimit="10" stroke-linecap="round" stroke-linejoin="round"/>
<path id="Vector_2" d="M10 12.8003L14.382 16.3003C15.824 17.4483 18.19 17.4483 19.632 16.3003" stroke="#292D32" stroke-width="2" stroke-miterlimit="10" stroke-linecap="round" stroke-linejoin="round"/>
<g id="Group">
<path id="Vector_3" d="M27.4719 4.14792L27.8639 4.94591C28.0599 5.33791 28.5499 5.70192 28.9839 5.78592L29.5159 5.86991C31.1119 6.13591 31.4899 7.31191 30.3419 8.47391L29.8519 8.9639C29.5299 9.2999 29.3479 9.94391 29.4459 10.3919L29.5159 10.6859C29.9499 12.6179 28.9279 13.3599 27.2479 12.3519L26.8839 12.1419C26.4499 11.8899 25.7499 11.8899 25.3159 12.1419L24.9519 12.3519C23.2579 13.3739 22.2359 12.6179 22.6839 10.6859L22.7539 10.3919C22.8519 9.94391 22.6699 9.2999 22.3479 8.9639L21.8579 8.47391C20.7099 7.31191 21.0879 6.13591 22.6839 5.86991L23.2159 5.78592C23.6359 5.71592 24.1399 5.33791 24.3359 4.94591L24.7279 4.14792C25.4839 2.62192 26.7159 2.62192 27.4719 4.14792Z" stroke="#292D32" stroke-width="2" stroke-linecap="round" stroke-linejoin="round"/>
</g>
</g>
</g>
</svg>
