<svg width="16" height="16" viewBox="0 0 16 16" fill="none" xmlns="http://www.w3.org/2000/svg">
<g id="Property=&#236;&#164;&#145;&#234;&#179;&#160;&#234;&#177;&#176;&#235;&#158;&#152;, State=&#236;&#149;&#132;&#235;&#130;&#140;">
<g id="vuesax/linear/box">
<g id="box">
<g id="Group">
<g id="Group_2">
<path id="Vector" d="M2.11328 4.95996L7.99994 8.36662L13.8466 4.97994" stroke="#0082FF" stroke-linecap="round" stroke-linejoin="round"/>
<path id="Vector_2" d="M8 14.4065V8.35986" stroke="#0082FF" stroke-linecap="round" stroke-linejoin="round"/>
</g>
<path id="Vector_3" d="M6.61991 1.65325L3.05992 3.63327C2.25325 4.07994 1.59326 5.19993 1.59326 6.11993V9.88661C1.59326 10.8066 2.25325 11.9266 3.05992 12.3733L6.61991 14.3533C7.37991 14.7733 8.62658 14.7733 9.38658 14.3533L12.9466 12.3733C13.7533 11.9266 14.4132 10.8066 14.4132 9.88661V6.11993C14.4132 5.19993 13.7533 4.07994 12.9466 3.63327L9.38658 1.65325C8.61991 1.22659 7.37991 1.22659 6.61991 1.65325Z" stroke="#0082FF" stroke-linecap="round" stroke-linejoin="round"/>
</g>
<path id="Vector_4" d="M11.3333 8.82674V6.38676L5.00659 2.7334" stroke="#0082FF" stroke-linecap="round" stroke-linejoin="round"/>
</g>
</g>
</g>
</svg>
