<svg width="16" height="16" viewBox="0 0 16 16" fill="none" xmlns="http://www.w3.org/2000/svg">
<path d="M11.2667 14.6666H4.73342C3.60009 14.6666 2.66675 13.7399 2.66675 12.5999V3.39992C2.66675 2.26659 3.59342 1.33325 4.73342 1.33325H11.2667C12.4001 1.33325 13.3334 2.25992 13.3334 3.39992V12.5999C13.3334 13.7399 12.4067 14.6666 11.2667 14.6666Z" stroke="#0082FF" stroke-linecap="round" stroke-linejoin="round"/>
<path d="M12.3334 8.66659H3.66675C3.11341 8.66659 2.66675 8.21992 2.66675 7.66659V6.33325C2.66675 5.77992 3.11341 5.33325 3.66675 5.33325H12.3334C12.8867 5.33325 13.3334 5.77992 13.3334 6.33325V7.66659C13.3334 8.21992 12.8867 8.66659 12.3334 8.66659Z" stroke="#0082FF" stroke-linecap="round" stroke-linejoin="round"/>
<path d="M5.66292 11.8001H5.66891" stroke="#0082FF" stroke-width="2" stroke-linecap="round" stroke-linejoin="round"/>
<path d="M10.3297 11.8001H10.3357" stroke="#0082FF" stroke-width="2" stroke-linecap="round" stroke-linejoin="round"/>
<path d="M6.33325 3.33325H9.66659" stroke="#0082FF" stroke-linecap="round" stroke-linejoin="round"/>
</svg>
