<svg width="109" height="64" viewBox="0 0 109 64" fill="none" xmlns="http://www.w3.org/2000/svg">
<path d="M36.5118 41.497C38.0628 41.497 39.1848 42.905 39.1848 45.127C39.1848 47.371 38.0628 48.779 36.5118 48.779C34.9607 48.779 33.8388 47.371 33.8388 45.127C33.8388 42.905 34.9607 41.497 36.5118 41.497ZM36.5118 42.828C35.7528 42.828 35.2468 43.631 35.2468 45.127C35.2468 46.645 35.7528 47.459 36.5118 47.459C37.2708 47.459 37.7878 46.645 37.7878 45.127C37.7878 43.631 37.2708 42.828 36.5118 42.828ZM40.2958 40.793H41.7698V50.979H40.2958V40.793ZM41.4398 44.632H43.2438V45.842H41.4398V44.632ZM45.6739 41.387H47.0159C47.0159 43.543 46.5429 44.973 44.8269 46.249L43.8919 45.347C45.2339 44.379 45.6739 43.444 45.6739 41.618V41.387ZM44.3099 41.387H46.3669V42.542H44.3099V41.387ZM48.5889 41.387H49.9309C49.9309 43.609 49.4909 45.171 47.8629 46.546L46.8399 45.732C48.1819 44.61 48.5889 43.532 48.5889 41.596V41.387ZM47.3789 41.387H49.1939V42.542H47.3789V41.387ZM50.8879 40.804H52.3619V46.579H50.8879V40.804ZM45.5089 47.019H52.3619V50.869H45.5089V47.019ZM50.9209 48.163H46.9499V49.714H50.9209V48.163ZM64.184 40.793H65.581V50.979H64.184V40.793ZM62.853 44.72H64.547V45.886H62.853V44.72ZM61.907 40.969H63.271V50.495H61.907V40.969ZM57.254 41.915H58.717V47.8H57.254V41.915ZM57.254 47.25H57.958C58.937 47.25 60.081 47.195 61.346 46.953L61.489 48.207C60.158 48.449 58.992 48.504 57.958 48.504H57.254V47.25ZM71.4871 42.157H74.5011V43.334H71.4871V42.157ZM71.4871 44.368H74.5011V45.545H71.4871V44.368ZM68.5611 47.283H75.5021V50.979H74.0391V48.438H68.5611V47.283ZM74.0391 40.793H75.5021V46.821H74.0391V40.793ZM69.7931 41.321C71.3111 41.321 72.4771 42.377 72.4771 43.84C72.4771 45.314 71.3111 46.37 69.7931 46.37C68.2641 46.37 67.0981 45.314 67.0981 43.84C67.0981 42.377 68.2641 41.321 69.7931 41.321ZM69.7931 42.564C69.0451 42.564 68.4951 43.037 68.4951 43.84C68.4951 44.654 69.0451 45.127 69.7931 45.127C70.5301 45.127 71.0911 44.654 71.0911 43.84C71.0911 43.037 70.5301 42.564 69.7931 42.564Z" fill="#A5AEB5"/>
<path d="M53.7516 28.8604V30.8904C53.7516 32.6104 52.1516 34.0004 50.1816 34.0004C48.2116 34.0004 46.6016 32.6104 46.6016 30.8904V28.8604C46.6016 30.5804 48.2016 31.8004 50.1816 31.8004C52.1516 31.8004 53.7516 30.5704 53.7516 28.8604Z" stroke="#A5AEB5" stroke-width="1.5" stroke-linecap="round" stroke-linejoin="round"/>
<path d="M53.75 26.1097C53.75 26.6097 53.61 27.0697 53.37 27.4697C52.78 28.4397 51.57 29.0497 50.17 29.0497C48.77 29.0497 47.56 28.4297 46.97 27.4697C46.73 27.0697 46.59 26.6097 46.59 26.1097C46.59 25.2497 46.99 24.4797 47.63 23.9197C48.28 23.3497 49.17 23.0098 50.16 23.0098C51.15 23.0098 52.04 23.3597 52.69 23.9197C53.35 24.4697 53.75 25.2497 53.75 26.1097Z" stroke="#A5AEB5" stroke-width="1.5" stroke-linecap="round" stroke-linejoin="round"/>
<path d="M53.7516 26.11V28.86C53.7516 30.58 52.1516 31.8 50.1816 31.8C48.2116 31.8 46.6016 30.57 46.6016 28.86V26.11C46.6016 24.39 48.2016 23 50.1816 23C51.1716 23 52.0616 23.35 52.7116 23.91C53.3516 24.47 53.7516 25.25 53.7516 26.11Z" stroke="#A5AEB5" stroke-width="1.5" stroke-linecap="round" stroke-linejoin="round"/>
<path d="M65 22.9702V25.0302C65 25.5802 64.56 26.0302 64 26.0502H62.04C60.96 26.0502 59.97 25.2602 59.88 24.1802C59.82 23.5502 60.06 22.9602 60.48 22.5502C60.85 22.1702 61.36 21.9502 61.92 21.9502H64C64.56 21.9702 65 22.4202 65 22.9702Z" stroke="#A5AEB5" stroke-width="1.5" stroke-linecap="round" stroke-linejoin="round"/>
<path d="M45 22.5V20.5C45 17.78 46.64 15.88 49.19 15.56C49.45 15.52 49.72 15.5 50 15.5H59C59.26 15.5 59.51 15.51 59.75 15.55C62.33 15.85 64 17.76 64 20.5V21.95H61.92C61.36 21.95 60.85 22.17 60.48 22.55C60.06 22.96 59.82 23.55 59.88 24.18C59.97 25.26 60.96 26.05 62.04 26.05H64V27.5C64 30.5 62 32.5 59 32.5H56.5" stroke="#A5AEB5" stroke-width="1.5" stroke-linecap="round" stroke-linejoin="round"/>
</svg>
