<svg width="109" height="64" viewBox="0 0 109 64" fill="none" xmlns="http://www.w3.org/2000/svg">
<path d="M55 14C52.38 14 50.25 16.13 50.25 18.75C50.25 21.32 52.26 23.4 54.88 23.49C54.96 23.48 55.04 23.48 55.1 23.49C55.12 23.49 55.13 23.49 55.15 23.49C55.16 23.49 55.16 23.49 55.17 23.49C57.73 23.4 59.74 21.32 59.75 18.75C59.75 16.13 57.62 14 55 14Z" fill="#292D32"/>
<path d="M60.08 26.1499C57.29 24.2899 52.74 24.2899 49.93 26.1499C48.66 26.9999 47.96 28.1499 47.96 29.3799C47.96 30.6099 48.66 31.7499 49.92 32.5899C51.32 33.5299 53.16 33.9999 55 33.9999C56.84 33.9999 58.68 33.5299 60.08 32.5899C61.34 31.7399 62.04 30.5999 62.04 29.3599C62.03 28.1299 61.34 26.9899 60.08 26.1499Z" fill="#292D32"/>
<path d="M30.9501 41.75H35.8231V48.504H30.9501V41.75ZM34.3821 42.894H32.3911V47.349H34.3821V42.894ZM37.1541 40.793H38.6281V50.979H37.1541V40.793ZM38.2981 44.632H40.1021V45.842H38.2981V44.632ZM47.7463 40.782H49.2203V51.001H47.7463V40.782ZM43.7313 41.497C45.2713 41.497 46.4043 42.905 46.4043 45.127C46.4043 47.371 45.2713 48.779 43.7313 48.779C42.1913 48.779 41.0583 47.371 41.0583 45.127C41.0583 42.905 42.1913 41.497 43.7313 41.497ZM43.7313 42.828C42.9723 42.828 42.4553 43.631 42.4553 45.127C42.4553 46.645 42.9723 47.459 43.7313 47.459C44.4903 47.459 44.9963 46.645 44.9963 45.127C44.9963 43.631 44.4903 42.828 43.7313 42.828ZM58.3274 40.793H59.7244V50.979H58.3274V40.793ZM55.3464 44.5H56.7104V45.787H55.3464V44.5ZM56.3034 40.991H57.6784V50.506H56.3034V40.991ZM50.9574 41.937H55.5884V43.103H50.9574V41.937ZM50.9354 48.669L50.7814 47.481C52.0574 47.481 54.2024 47.448 55.7424 47.239L55.8414 48.295C54.2574 48.636 52.1894 48.669 50.9354 48.669ZM51.5844 42.685H52.8934V47.789H51.5844V42.685ZM53.6304 42.685H54.9504V47.789H53.6304V42.685ZM67.9846 40.782H69.4586V51.001H67.9846V40.782ZM63.9696 41.497C65.5096 41.497 66.6426 42.905 66.6426 45.127C66.6426 47.371 65.5096 48.779 63.9696 48.779C62.4296 48.779 61.2966 47.371 61.2966 45.127C61.2966 42.905 62.4296 41.497 63.9696 41.497ZM63.9696 42.828C63.2106 42.828 62.6936 43.631 62.6936 45.127C62.6936 46.645 63.2106 47.459 63.9696 47.459C64.7286 47.459 65.2346 46.645 65.2346 45.127C65.2346 43.631 64.7286 42.828 63.9696 42.828ZM73.5717 42.399H74.7377V43.543C74.7377 45.897 73.7807 48.196 71.8667 49.065L71.0417 47.91C72.7467 47.151 73.5717 45.27 73.5717 43.543V42.399ZM73.9017 42.399H75.0567V43.543C75.0567 45.193 75.8707 46.953 77.5757 47.657L76.7837 48.812C74.8477 47.976 73.9017 45.809 73.9017 43.543V42.399ZM71.4487 41.772H77.1577V42.971H71.4487V41.772ZM78.1037 40.793H79.5777V50.979H78.1037V40.793Z" fill="#22282E"/>
</svg>
