<svg width="34" height="34" viewBox="0 0 34 34" fill="none" xmlns="http://www.w3.org/2000/svg">
<path d="M12.8 31H21.2C28.2 31 31 28.2 31 21.2V12.8C31 5.8 28.2 3 21.2 3H12.8C5.8 3 3 5.8 3 12.8V21.2C3 28.2 5.8 31 12.8 31Z" stroke="#22282E" stroke-width="2" stroke-linecap="round" stroke-linejoin="round"/>
<path d="M12.8 14.2001C14.3464 14.2001 15.6 12.9465 15.6 11.4001C15.6 9.8537 14.3464 8.6001 12.8 8.6001C11.2536 8.6001 10 9.8537 10 11.4001C10 12.9465 11.2536 14.2001 12.8 14.2001Z" stroke="#22282E" stroke-width="2" stroke-linecap="round" stroke-linejoin="round"/>
<path d="M3.93799 26.7301L10.84 22.0961C11.946 21.3541 13.542 21.4381 14.536 22.2921L14.998 22.6981C16.09 23.6361 17.854 23.6361 18.946 22.6981L24.77 17.7001C25.862 16.7621 27.626 16.7621 28.718 17.7001L31 19.6601" stroke="#22282E" stroke-width="2" stroke-linecap="round" stroke-linejoin="round"/>
</svg>
